<?xml version="1.0" encoding="UTF-8" standalone="no"?>
<!DOCTYPE svg PUBLIC "-//W3C//DTD SVG 1.1//EN" "http://www.w3.org/Graphics/SVG/1.1/DTD/svg11.dtd">
<svg width="100%" height="100%" viewBox="0 0 1749 2481" version="1.1" xmlns="http://www.w3.org/2000/svg" xmlns:xlink="http://www.w3.org/1999/xlink" xml:space="preserve" xmlns:serif="http://www.serif.com/" style="fill-rule:evenodd;clip-rule:evenodd;stroke-linecap:round;stroke-linejoin:round;stroke-miterlimit:1.5;">
    <g>
        <g transform="matrix(1,0,0,1,0,-30)">
            <path d="M874.016,1240.16C1173.57,1240.16 1346.54,1387.57 1385.62,1325.24C1415.03,1278.35 1335.65,1201.23 1158.8,1164.5C1060.5,1144.09 981.027,1189.01 874.016,1189.01C780.086,1189.01 715.713,1154.52 625.933,1170.05C429.395,1204.05 361.242,1282.46 380.588,1338.33C414.295,1435.67 574.465,1240.16 874.016,1240.16Z"/>
            <clipPath id="_clip1">
                <path d="M874.016,1240.16C1173.57,1240.16 1346.54,1387.57 1385.62,1325.24C1415.03,1278.35 1335.65,1201.23 1158.8,1164.5C1060.5,1144.09 981.027,1189.01 874.016,1189.01C780.086,1189.01 715.713,1154.52 625.933,1170.05C429.395,1204.05 361.242,1282.46 380.588,1338.33C414.295,1435.67 574.465,1240.16 874.016,1240.16Z"/>
            </clipPath>
            <g clip-path="url(#_clip1)">
                <g>
                    <g transform="matrix(1.26988,0,0,0.913907,-123.167,-411.535)">
                        <ellipse cx="788.734" cy="1734.51" rx="197.86" ry="71.369" style="fill:white;"/>
                    </g>
                    <g transform="matrix(-0.105761,-0.300817,0.853643,-0.300124,-761.982,1917.02)">
                        <ellipse cx="788.734" cy="1734.51" rx="197.86" ry="71.369" style="fill:white;"/>
                    </g>
                    <g transform="matrix(-0.105761,-0.300817,0.853643,-0.300124,-258.187,1917.02)">
                        <ellipse cx="788.734" cy="1734.51" rx="197.86" ry="71.369" style="fill:white;"/>
                    </g>
                    <g transform="matrix(-0.0268647,-0.317733,1.10614,-0.0935251,-868.945,1588.47)">
                        <ellipse cx="788.734" cy="1734.51" rx="197.86" ry="71.369" style="fill:white;"/>
                    </g>
                    <g transform="matrix(0.0268647,-0.317733,-1.10614,-0.0935251,2630.25,1588.76)">
                        <ellipse cx="788.734" cy="1734.51" rx="197.86" ry="71.369" style="fill:white;"/>
                    </g>
                </g>
                <g transform="matrix(1.28738,0,0,1,-248.905,166.427)">
                    <g transform="matrix(1.51451,0,0,0.837499,-324.06,-284.458)">
                        <ellipse cx="788.734" cy="1734.51" rx="197.86" ry="71.369" style="fill:white;"/>
                    </g>
                    <g transform="matrix(-0.105761,-0.300817,0.853643,-0.300124,-761.982,1917.02)">
                        <ellipse cx="788.734" cy="1734.51" rx="197.86" ry="71.369" style="fill:white;"/>
                    </g>
                    <g transform="matrix(-0.105761,-0.300817,0.853643,-0.300124,-258.187,1917.02)">
                        <ellipse cx="788.734" cy="1734.51" rx="197.86" ry="71.369" style="fill:white;"/>
                    </g>
                    <g transform="matrix(-0.232285,-0.140016,-0.244095,1.09501,1779.27,-623.211)">
                        <ellipse cx="788.734" cy="1734.51" rx="197.86" ry="71.369" style="fill:white;"/>
                    </g>
                    <g transform="matrix(0.232285,-0.140016,0.244095,1.09501,2.71706,-621.211)">
                        <ellipse cx="788.734" cy="1734.51" rx="197.86" ry="71.369" style="fill:white;"/>
                    </g>
                </g>
            </g>
            <path d="M874.016,1240.16C1173.57,1240.16 1346.54,1387.57 1385.62,1325.24C1415.03,1278.35 1335.65,1201.23 1158.8,1164.5C1060.5,1144.09 981.027,1189.01 874.016,1189.01C780.086,1189.01 715.713,1154.52 625.933,1170.05C429.395,1204.05 361.242,1282.46 380.588,1338.33C414.295,1435.67 574.465,1240.16 874.016,1240.16Z" style="fill:none;stroke:rgb(35,31,32);stroke-width:12.5px;"/>
        </g>
        <path d="M874.016,1346.48C1336.69,1347.55 1374.92,1486.9 1451.82,1335.5C1507.98,1224.93 1277.06,1013.12 874.016,1013.12C470.968,1013.12 241.774,1254.34 333.271,1360.67C466.258,1515.22 472.076,1345.55 874.016,1346.48ZM848.96,1193.43C1124.92,1184.9 1309.04,1306.78 1332.72,1281.15C1364.17,1247.12 1275.39,1194.19 1204.4,1176.42C1107.01,1152.05 981.027,1170 874.016,1170C780.086,1170 683.081,1148.2 595.734,1174.13C432.466,1222.58 407.344,1274.36 451.914,1292.09C508.633,1314.65 566.622,1202.16 848.96,1193.43Z" style="fill:rgb(255,90,79);stroke:rgb(35,31,32);stroke-width:12.5px;"/>
    </g>
</svg>
